<?xml version="1.0" standalone="no"?><!DOCTYPE svg PUBLIC "-//W3C//DTD SVG 1.1//EN" "http://www.w3.org/Graphics/SVG/1.1/DTD/svg11.dtd"><svg t="1529736789210" class="icon" style="" viewBox="0 0 1024 1024" version="1.1" xmlns="http://www.w3.org/2000/svg" p-id="5305" xmlns:xlink="http://www.w3.org/1999/xlink" width="200" height="200"><defs><style type="text/css"></style></defs><path d="M191.90624 190.952007l641.318274 0 0 448.933639L191.90624 639.885646 191.90624 190.952007 191.90624 190.952007zM868.691283 61.809741 156.493705 61.809741c-50.994418 0-92.339058 41.434691-92.339058 92.553952l0 520.745175c0 51.116191 41.336454 92.553952 92.339058 92.553952l223.89428 0 0 127.747499L222.537887 895.41032c-17.569144 0-31.81152 14.246469-31.81152 31.807427 0 17.569144 14.242376 31.815613 31.81152 31.815613L800.750915 959.033359c17.569144 0 31.815613-14.246469 31.815613-31.815613 0-17.560958-14.246469-31.807427-31.815613-31.807427L641.028167 895.41032 641.028167 767.663844l227.66414 0c50.998511 0 92.342128-41.437761 92.342128-92.553952L961.034435 154.363693C961.033411 103.252619 919.689794 61.809741 868.691283 61.809741L868.691283 61.809741zM898.61071 704.558597 127.961882 704.558597 127.961882 127.477346l770.647805 0L898.609687 704.558597 898.61071 704.558597zM898.61071 704.558597" p-id="5306"></path></svg>